<svg xmlns="http://www.w3.org/2000/svg" width="64" height="64" viewBox="0 0 64 64" role="img" aria-label="IC Platform">
  <defs>
    <linearGradient id="icFavGradient" x1="6" y1="6" x2="58" y2="58" gradientUnits="userSpaceOnUse">
      <stop offset="0" stop-color="#f97316"/>
      <stop offset="1" stop-color="#ea580c"/>
    </linearGradient>
    <filter id="icFavShadow" x="-20%" y="-20%" width="140%" height="140%" color-interpolation-filters="sRGB">
      <feDropShadow dx="0" dy="4" stdDeviation="4" flood-color="#9a3412" flood-opacity="0.22"/>
    </filter>
  </defs>
  <rect x="5" y="5" width="54" height="54" rx="15" fill="url(#icFavGradient)" filter="url(#icFavShadow)"/>
  <path d="M17.4 18.2h7.2v27.6h-7.2V18.2Z" fill="#fff"/>
  <path d="M42.7 46.7c-8.7 0-15.2-6.2-15.2-14.7s6.5-14.7 15.2-14.7c4.4 0 8.1 1.5 10.8 4.3l-4.8 5.2c-1.5-1.5-3.3-2.2-5.4-2.2-4.1 0-7.1 3-7.1 7.4s3 7.4 7.1 7.4c2.1 0 3.9-.7 5.4-2.2l4.8 5.2c-2.7 2.8-6.4 4.3-10.8 4.3Z" fill="#fff"/>
</svg>
